<svg width="104" height="101" viewBox="0 0 104 101" fill="none" xmlns="http://www.w3.org/2000/svg">
<path d="M54.7522 27.076V42.116H45.0022L58.5022 60.164L72.0022 42.116H62.2522V27.076H54.7522Z" fill="#E3DADA"/>
<path d="M94.4932 72.581L103.426 33.7688C103.799 32.149 102.791 30.5352 101.177 30.1607C99.5617 29.7952 97.9522 30.7969 97.5802 32.4152L88.5022 71.8531V72.196C88.5022 73.0262 87.8287 73.7 87.0022 73.7H30.0022C29.1757 73.7 28.5022 73.0262 28.5022 72.196V71.8847L14.9392 6.90737C14.9272 6.85322 14.9047 6.8051 14.8897 6.75095C14.8627 6.64868 14.8327 6.54791 14.7937 6.44865C14.7592 6.35991 14.7217 6.27418 14.6797 6.18996C14.6347 6.09972 14.5867 6.01249 14.5342 5.92676C14.4847 5.84855 14.4337 5.77485 14.3767 5.70116C14.3137 5.61693 14.2462 5.53722 14.1727 5.46052C14.1142 5.39886 14.0527 5.3402 13.9882 5.28305C13.9057 5.20935 13.8202 5.14017 13.7287 5.07549C13.6597 5.02737 13.5892 4.98375 13.5157 4.94013C13.4572 4.90554 13.4047 4.86193 13.3432 4.83034L4.34322 0.318342C2.86422 -0.424634 1.05973 0.176967 0.317226 1.66442C-0.423774 3.15037 0.177725 4.95668 1.65973 5.70116L9.36222 9.56343L22.5097 72.5449C22.6927 76.5305 25.9837 79.716 30.0022 79.716H87.0022C91.0087 79.716 94.2922 76.5501 94.4932 72.581Z" fill="#E3DADA"/>
<path d="M28.5022 91.748C28.5022 96.7247 32.5387 100.772 37.5022 100.772C42.4657 100.772 46.5022 96.7247 46.5022 91.748C46.5022 86.7713 42.4657 82.724 37.5022 82.724C32.5387 82.724 28.5022 86.7713 28.5022 91.748ZM40.5022 91.748C40.5022 93.4069 39.1567 94.756 37.5022 94.756C35.8477 94.756 34.5022 93.4069 34.5022 91.748C34.5022 90.0891 35.8477 88.74 37.5022 88.74C39.1567 88.74 40.5022 90.0891 40.5022 91.748Z" fill="#E3DADA"/>
<path d="M79.5022 82.724C74.5387 82.724 70.5022 86.7713 70.5022 91.748C70.5022 96.7247 74.5387 100.772 79.5022 100.772C84.4657 100.772 88.5022 96.7247 88.5022 91.748C88.5022 86.7713 84.4657 82.724 79.5022 82.724ZM79.5022 94.756C77.8477 94.756 76.5022 93.4069 76.5022 91.748C76.5022 90.0891 77.8477 88.74 79.5022 88.74C81.1567 88.74 82.5022 90.0891 82.5022 91.748C82.5022 93.4069 81.1567 94.756 79.5022 94.756Z" fill="#E3DADA"/>
</svg>
