<svg width="179" height="179" viewBox="0 0 179 179" fill="none" xmlns="http://www.w3.org/2000/svg">
<path d="M175.011 81.2473L166.755 75.0553C163.19 72.2407 161.877 67.3621 163.565 63.234L167.506 53.6645C169.945 47.4725 166.005 40.7175 159.437 39.7793L149.117 38.4658C144.614 37.9029 141.049 34.3378 140.486 29.8345L139.173 19.5144C138.234 12.947 131.479 9.00663 125.287 11.4459L115.718 15.3863C111.59 17.0751 106.711 15.7616 103.897 12.1965L97.5168 3.9404C93.5764 -1.31347 85.508 -1.31347 81.5676 3.9404L75.5632 12.3841C72.7486 15.9492 67.87 17.2627 63.742 15.574L54.1724 11.4459C47.9804 9.00663 41.2254 12.947 40.2872 19.5144L38.9737 29.8345C38.4108 34.3378 34.8457 37.9029 30.3424 38.4658L20.0223 39.7793C13.455 40.7175 9.51456 47.4725 11.9539 53.6645L15.8943 63.234C17.583 67.3621 16.2695 72.2407 12.7044 75.0553L4.44833 81.435C-0.805532 85.3754 -0.805532 93.4438 4.44833 97.3842L12.892 103.576C16.4572 106.391 17.7706 111.269 16.0819 115.397L11.9539 124.967C9.51456 131.159 13.455 137.914 20.0223 138.852L30.3424 140.166C34.8457 140.729 38.4108 144.294 38.9737 148.797L40.2872 159.117C41.2254 165.684 47.9804 169.625 54.1724 167.186L63.742 163.245C67.87 161.556 72.7486 162.87 75.5632 166.435L81.9429 174.691C85.8833 179.945 93.9517 179.945 97.8921 174.691L104.272 166.435C107.086 162.87 111.965 161.556 116.093 163.245L125.663 167.186C131.855 169.625 138.61 165.684 139.548 159.117L140.861 148.797C141.424 144.294 144.989 140.729 149.493 140.166L159.813 138.852C166.38 137.914 170.32 131.159 167.881 124.967L163.941 115.397C162.252 111.269 163.565 106.391 167.131 103.576L175.387 97.1966C180.265 93.2562 180.265 85.3754 175.011 81.2473ZM122.285 79.1833L88.3226 113.146C86.4462 115.022 84.0069 115.96 81.38 115.96C78.753 115.96 76.3137 115.022 74.4373 113.146L57.3623 96.0707C53.6095 92.318 53.6095 86.1259 57.3623 82.3731C61.115 78.6204 67.3071 78.6204 71.0599 82.3731L81.1923 92.5056L108.587 65.4857C112.34 61.7329 118.532 61.7329 122.285 65.4857C126.038 69.2385 126.038 75.4305 122.285 79.1833Z" fill="#1A3A52"/>
</svg>
