<svg xmlns="http://www.w3.org/2000/svg" xmlns:xlink="http://www.w3.org/1999/xlink" viewBox="0 0 100 125" version="1.1" x="0px" y="0px"><title>40</title><desc>Created with Sketch.</desc><g stroke="none" stroke-width="1" fill="none" fill-rule="evenodd"><path d="M50.5118182,75.1870102 L74.2799151,50.7138533 C77.3173233,47.8163014 79,43.9723197 79,39.85 C79,31.6485715 72.3514285,25 64.15,25 C60.0279376,25 56.1841756,26.6824648 53.3961282,29.6090147 L50.5,32.6490146 L47.6038718,29.6090147 C44.8158244,26.6824648 40.9720624,25 36.85,25 C28.6485715,25 22,31.6485715 22,39.85 C22,43.9723229 23.6826794,47.8163073 26.6095552,50.6043867 L50.5118182,75.1870102 Z M18,39.85 C18,29.4394325 26.4394325,21 36.85,21 C42.2205952,21 47.0666095,23.2459975 50.5,26.8499494 C53.9333905,23.2459975 58.7794048,21 64.15,21 C74.5605675,21 83,29.4394325 83,39.85 C83,45.2209312 80.7537214,50.0672159 77.1493741,53.5006445 L50.5132439,80.9269124 L23.8506343,53.5006525 C20.246282,50.0672235 18,45.2209354 18,39.85 Z" fill="#000000" fill-rule="nonzero"/></g><text x="0" y="115" fill="#000000" font-size="5px" font-weight="bold" font-family="'Helvetica Neue', Helvetica, Arial-Unicode, Arial, Sans-serif">Created by Tatyana Kyul</text><text x="0" y="120" fill="#000000" font-size="5px" font-weight="bold" font-family="'Helvetica Neue', Helvetica, Arial-Unicode, Arial, Sans-serif">from the Noun Project</text></svg>