<svg width="229" height="154" viewBox="0 0 229 154" fill="none" xmlns="http://www.w3.org/2000/svg">
<path d="M61.9352 86.6614C43.5452 86.6614 28.5855 101.61 28.5855 119.987C28.5855 138.363 43.5452 153.312 61.9352 153.312C80.3252 153.312 95.285 138.363 95.285 119.987C95.285 101.61 80.3252 86.6614 61.9352 86.6614Z" fill="#1A3A52"/>
<path d="M166.749 86.6614C148.359 86.6614 133.399 101.61 133.399 119.987C133.399 138.363 148.359 153.312 166.749 153.312C185.139 153.312 200.098 138.363 200.098 119.987C200.098 101.61 185.139 86.6614 166.749 86.6614Z" fill="#1A3A52"/>
<path d="M217.288 41.6151L177.287 8.30886C171.608 3.57667 164.395 0.967773 157.001 0.967773H61.9352C53.7312 0.967773 46.1846 4.50978 40.9725 10.4893H71.4637C74.0936 10.4893 76.228 12.6221 76.228 15.2501C76.228 17.878 74.0936 20.0108 71.4637 20.0108H35.1697H4.76425C2.13438 20.0108 0 22.1436 0 24.7716C0 27.3995 2.13438 29.5323 4.76425 29.5323H30.4054L25.6412 39.0538H52.4067C55.0366 39.0538 57.171 41.1867 57.171 43.8146C57.171 46.4425 55.0366 48.5754 52.4067 48.5754H20.8769H4.76425C2.13438 48.5754 0 50.7082 0 53.3361C0 55.9641 2.13438 58.0969 4.76425 58.0969H16.1127L11.3484 67.6184H33.3497C35.9796 67.6184 38.114 69.7512 38.114 72.3792C38.114 75.0071 35.9796 77.1399 33.3497 77.1399H6.58419H4.76425C2.13438 77.1399 0 79.2727 0 81.9007C0 83.6431 0.990964 85.1094 2.39165 85.9378C0.914736 89.4036 0 93.117 0 96.878C0 105.981 4.47839 114.521 11.9869 119.739C13.378 120.71 15.1789 120.853 16.732 120.149C18.2757 119.425 19.3143 117.949 19.4572 116.254C21.4296 93.9549 39.6862 77.1399 61.9352 77.1399C85.5754 77.1399 104.813 96.3639 104.813 119.987C104.813 122.615 106.948 124.748 109.578 124.748H119.106C121.736 124.748 123.87 122.615 123.87 119.987C123.87 96.3639 143.109 77.1399 166.749 77.1399C185.396 77.1399 201.747 89.2227 207.435 107.199C208.017 109.047 209.665 110.361 211.599 110.513C213.496 110.665 215.373 109.627 216.24 107.894L221.033 98.3158C226.035 88.3182 228.684 77.1209 228.684 65.9426C228.684 56.5068 224.53 47.6423 217.288 41.6151ZM209.36 64.4382C208.693 66.3425 206.892 67.6184 204.863 67.6184H147.692C146.224 67.6184 144.843 66.9424 143.938 65.7903C143.032 64.6382 142.718 63.1338 143.07 61.7055L152.599 23.6195C152.99 22.0389 154.162 20.7821 155.696 20.2584C157.211 19.7347 158.926 20.0299 160.193 21.0487L207.836 59.1347C209.417 60.4011 210.027 62.5244 209.36 64.4382Z" fill="#1A3A52"/>
</svg>
