<svg width="153" height="153" viewBox="0 0 153 153" fill="none" xmlns="http://www.w3.org/2000/svg">
<path fill-rule="evenodd" clip-rule="evenodd" d="M104.187 89.683L148.538 130.379C160.399 142.227 142.349 160.257 130.488 148.409L89.2313 104.107L104.187 89.683ZM22.1892 26.8361C21.6735 26.321 21.1578 25.8058 20.1264 25.8058H12.9065L1.56087 6.74571L6.71795 1.59433L25.7992 12.9274V20.1393C25.7992 20.6545 26.3149 21.6847 26.8306 22.1999L67.0559 62.8958L62.9302 67.5321L22.1892 26.8361ZM118.111 50.5325C117.08 50.0174 116.048 50.5325 115.017 51.5628C99.0298 67.5321 63.9616 102.046 51.5846 114.925C50.5532 115.955 50.0375 116.985 50.5532 118.016C56.7417 136.046 41.7861 154.075 23.2206 152.015L33.5348 141.712C34.0505 141.197 34.5662 140.167 34.5662 139.652V130.379C34.5662 129.864 34.0505 128.834 33.5348 128.318L24.252 119.046C23.7363 118.531 23.2206 118.016 22.1892 118.016H12.9065C12.3907 118.016 11.3593 118.531 10.8436 119.046L0.529452 129.349C-1.53338 110.804 16.5164 95.8647 34.5662 102.046C35.5976 102.562 37.1448 102.046 37.6605 101.531C38.1762 101.016 101.093 37.654 101.608 37.654C102.124 37.1389 102.64 35.5935 102.124 34.5632C95.9355 16.5333 110.891 -1.49651 129.457 0.564049L119.658 10.8668C118.627 11.382 118.627 12.4122 118.627 12.9274V22.1999C118.627 23.2302 118.627 23.7453 119.142 24.2604L128.425 33.5329C128.941 34.0481 129.457 34.5632 130.488 34.5632H139.771C140.286 34.5632 141.318 34.0481 141.834 33.5329L152.148 23.2302C154.211 41.7751 136.161 56.7142 118.111 50.5325ZM46.9432 102.046C44.3647 102.046 42.8176 106.167 44.8804 107.713C46.4275 108.743 47.9746 108.743 49.5218 107.713C51.5846 106.167 50.0375 102.046 46.9432 102.046ZM105.734 43.8357C102.64 43.8357 101.093 47.4417 103.155 49.5022C104.187 50.5325 106.25 50.5325 107.281 50.0174C109.86 47.9568 108.828 43.8357 105.734 43.8357ZM94.3884 54.1385L54.1631 94.3193C51.0689 96.895 55.7103 101.531 58.2888 98.4404L98.5141 58.2596C101.608 55.6839 96.9669 51.0476 94.3884 54.1385ZM99.5455 85.0468L85.1057 99.4707L80.98 94.8344L94.3884 80.9257L99.5455 85.0468ZM134.614 139.136C137.708 142.227 142.349 137.591 139.255 134.5L110.375 105.652C107.281 103.077 102.64 107.198 105.734 110.289L134.614 139.136Z" fill="#1A3A52"/>
</svg>
